<?xml version="1.0" standalone="no"?>
<!DOCTYPE svg PUBLIC "-//W3C//DTD SVG 20010904//EN"
 "http://www.w3.org/TR/2001/REC-SVG-20010904/DTD/svg10.dtd">
<svg version="1.0" xmlns="http://www.w3.org/2000/svg"
 width="500.000000pt" height="500.000000pt" viewBox="0 0 500.000000 500.000000"
 preserveAspectRatio="xMidYMid meet">

<g transform="translate(0.000000,500.000000) scale(0.100000,-0.100000)"
fill="#000000" stroke="none">
<path d="M3986 2869 c-14 -21 -20 -22 -144 -17 l-129 6 -6 -137 c-4 -75 -16
-179 -27 -231 -11 -52 -20 -123 -20 -157 0 -34 -4 -65 -10 -68 -14 -9 -12
-119 2 -133 18 -18 37 -14 31 6 -4 17 11 18 289 20 161 2 373 7 472 12 98 5
183 7 189 3 9 -5 3 71 -9 101 -3 8 27 16 88 24 50 7 94 15 97 18 3 2 -11 18
-30 34 -22 19 -29 30 -19 31 8 0 -5 7 -30 13 -51 14 -58 13 -40 -9 10 -12 9
-16 -4 -21 -9 -3 -23 -3 -32 0 -13 5 -14 9 -4 22 16 19 5 29 -37 37 -31 6 -45
-5 -23 -18 15 -9 2 -25 -20 -25 -22 0 -37 19 -23 29 16 10 11 37 -6 39 -9 1
-25 3 -36 4 -15 2 -20 -3 -20 -22 0 -17 -5 -24 -15 -22 -23 5 -37 24 -22 29
23 9 13 41 -16 51 -24 8 -31 7 -41 -11 -11 -16 -15 -17 -22 -6 -7 11 -9 11 -9
-3 0 -21 11 -23 28 -6 9 9 12 9 12 0 0 -19 -28 -26 -45 -12 -14 12 -13 16 6
36 l22 23 -24 20 c-25 20 -49 13 -49 -15 0 -20 -17 -26 -40 -14 -25 13 -26 29
-2 37 39 14 42 24 20 54 -27 36 -45 37 -58 3 -12 -31 -44 -29 -48 4 -3 16 2
22 15 22 27 0 44 32 28 53 -15 21 -41 22 -53 1 -12 -22 -47 -14 -47 11 0 11 7
20 15 20 8 1 22 5 31 10 15 9 15 13 -6 42 l-22 33 -23 -20 c-17 -15 -27 -17
-41 -9 -22 11 -25 28 -6 33 52 16 51 15 32 36 -10 11 -24 20 -31 20 -8 0 -19
9 -26 20 -17 26 -43 25 -62 -1z m-46 -174 c87 -45 95 -153 14 -206 -60 -40
-152 -11 -180 57 -41 99 69 199 166 149z m144 -11 c3 -8 2 -12 -4 -9 -6 3 -10
10 -10 16 0 14 7 11 14 -7z m57 -91 c13 -16 12 -17 -3 -4 -17 13 -22 21 -14
21 2 0 10 -8 17 -17z m109 -120 c0 -8 -9 0 -50 45 l-45 47 48 -45 c26 -24 47
-45 47 -47z m31 -20 c13 -16 12 -17 -3 -4 -17 13 -22 21 -14 21 2 0 10 -8 17
-17z m88 -49 c14 -12 -19 -1 -35 12 -18 14 -18 14 6 3 14 -6 27 -13 29 -15z
m68 -20 c-3 -3 -12 -4 -19 -1 -8 3 -5 6 6 6 11 1 17 -2 13 -5z m40 -10 c-3 -3
-12 -4 -19 -1 -8 3 -5 6 6 6 11 1 17 -2 13 -5z m46 -11 c-7 -2 -19 -2 -25 0
-7 3 -2 5 12 5 14 0 19 -2 13 -5z m60 -10 c-7 -2 -19 -2 -25 0 -7 3 -2 5 12 5
14 0 19 -2 13 -5z m60 -10 c-7 -2 -19 -2 -25 0 -7 3 -2 5 12 5 14 0 19 -2 13
-5z m-516 -19 c9 -23 -13 -40 -32 -24 -12 10 -13 16 -4 26 15 18 28 18 36 -2z
m141 -5 c4 -19 -19 -31 -38 -19 -18 11 -4 42 17 38 10 -2 19 -10 21 -19z m455
14 c-7 -2 -21 -2 -30 0 -10 3 -4 5 12 5 17 0 24 -2 18 -5z m60 -10 c-7 -2 -19
-2 -25 0 -7 3 -2 5 12 5 14 0 19 -2 13 -5z m-162 -83 c4 -19 4 -39 -1 -44 -10
-10 -900 -32 -924 -23 -10 4 -16 19 -16 42 0 26 -4 35 -17 35 -9 0 -14 3 -11
6 4 3 100 4 215 3 258 -4 513 1 607 11 39 4 87 7 106 6 31 -1 35 -5 41 -36z
m-951 -56 c0 -34 -4 -53 -10 -49 -5 3 -10 28 -10 56 0 27 5 49 10 49 6 0 10
-25 10 -56z"/>
<path d="M4100 2310 c0 -5 5 -10 10 -10 6 0 10 5 10 10 0 6 -4 10 -10 10 -5 0
-10 -4 -10 -10z"/>
<path d="M4236 2321 c-4 -5 -2 -12 3 -15 5 -4 12 -2 15 3 4 5 2 12 -3 15 -5 4
-12 2 -15 -3z"/>
<path d="M4080 2781 c0 -6 4 -13 10 -16 6 -3 7 1 4 9 -7 18 -14 21 -14 7z"/>
<path d="M310 2728 c0 -2 -9 -77 -20 -168 -10 -91 -22 -184 -26 -207 l-7 -43
42 0 c46 0 46 0 55 104 3 32 7 61 11 64 8 9 121 15 148 8 23 -5 24 -8 16 -63
-5 -32 -11 -70 -14 -85 -4 -27 -3 -28 39 -28 l43 0 7 73 c4 39 16 132 27 205
10 73 19 135 19 138 0 2 -20 4 -44 4 l-43 0 -7 -52 c-3 -29 -6 -67 -6 -84 0
-30 -3 -32 -45 -38 -60 -9 -138 2 -131 19 2 7 8 45 12 84 l7 71 -42 0 c-22 0
-41 -1 -41 -2z"/>
<path d="M770 2727 c0 -2 -20 -94 -45 -205 -25 -111 -45 -204 -45 -207 0 -3
16 -5 35 -5 19 0 35 2 35 4 0 17 53 264 59 274 4 8 18 -36 31 -100 30 -146 27
-140 64 -136 29 3 35 11 94 128 l62 125 -5 -147 -4 -148 34 0 c42 0 42 -1 49
243 l6 177 -48 0 -48 0 -59 -130 c-32 -72 -62 -127 -66 -123 -4 5 -17 63 -29
131 l-23 122 -48 0 c-27 0 -49 -1 -49 -3z"/>
<path d="M1275 2718 c-4 -11 -25 -105 -83 -365 l-10 -43 39 0 c31 0 39 4 39
18 0 39 54 272 61 260 4 -7 16 -59 28 -116 11 -57 23 -108 26 -113 4 -5 19 -9
35 -9 27 0 33 8 89 125 33 69 62 125 66 125 6 0 -2 -200 -11 -257 -5 -32 -4
-33 34 -33 l39 0 6 122 c4 66 7 161 7 210 l0 88 -46 0 c-45 0 -45 0 -68 -52
-67 -150 -97 -211 -101 -206 -3 3 -15 61 -28 129 l-23 124 -47 3 c-32 2 -49
-1 -52 -10z"/>
<path d="M1879 2707 c-19 -12 -42 -39 -52 -60 -33 -66 -12 -103 102 -179 45
-30 52 -55 23 -81 -25 -23 -64 -21 -112 3 -49 25 -47 25 -54 -4 -3 -13 -8 -31
-12 -39 -7 -20 53 -40 122 -40 62 0 109 24 142 74 44 64 19 114 -97 191 -46
31 -53 59 -19 82 29 21 46 20 91 -3 l38 -19 10 26 c5 15 12 33 14 40 7 18 -38
32 -104 32 -44 0 -67 -6 -92 -23z"/>
<path d="M2165 2718 c-2 -7 -11 -83 -20 -168 -9 -85 -20 -174 -24 -197 l-8
-43 42 0 c41 0 43 1 49 38 3 20 6 53 6 72 0 59 10 65 97 65 l78 0 0 -40 c0
-22 -4 -62 -8 -88 l-8 -48 43 3 c41 3 43 4 46 38 4 48 41 330 47 358 5 20 2
22 -39 22 l-45 0 -6 -57 c-12 -111 -12 -110 -59 -117 -24 -4 -62 -4 -85 0 -41
7 -43 8 -37 38 3 17 8 55 12 84 l7 52 -42 0 c-25 0 -43 -5 -46 -12z"/>
<path d="M2662 2709 c-71 -36 -112 -117 -112 -226 0 -66 18 -111 58 -145 66
-55 190 -41 255 31 45 50 61 100 61 186 0 82 -19 126 -67 155 -45 28 -138 27
-195 -1z m154 -70 c25 -28 26 -158 1 -206 -32 -62 -101 -82 -147 -45 -46 37
-39 194 10 244 37 36 106 40 136 7z"/>
<path d="M3016 2688 c-10 -71 -46 -369 -46 -374 0 -2 57 -3 128 -2 l127 3 3
33 3 32 -87 0 -87 0 7 38 c3 20 6 45 6 55 0 14 10 17 69 17 63 0 69 2 75 23
12 45 9 47 -63 47 l-70 0 5 38 c9 64 7 62 99 62 61 0 85 3 85 13 0 6 3 22 6
35 6 22 6 22 -124 22 l-131 0 -5 -42z"/>
<path d="M3381 2713 c-62 -31 -92 -119 -56 -170 8 -12 42 -38 75 -58 51 -31
60 -41 60 -65 0 -51 -57 -65 -125 -30 -44 22 -52 19 -61 -28 -6 -28 -3 -33 22
-43 16 -6 54 -11 84 -12 99 -2 170 53 170 133 0 48 -19 72 -89 114 -63 39 -76
57 -61 86 14 27 54 32 100 14 46 -19 57 -14 66 32 5 27 3 32 -18 37 -44 12
-133 7 -167 -10z"/>
<path d="M4137 2679 c7 -7 15 -10 18 -7 3 3 -2 9 -12 12 -14 6 -15 5 -6 -5z"/>
<path d="M4190 2600 c0 -13 18 -22 24 -11 3 5 -1 11 -9 15 -8 3 -15 1 -15 -4z"/>
<path d="M4270 2520 c0 -6 7 -10 15 -10 8 0 15 2 15 4 0 2 -7 6 -15 10 -8 3
-15 1 -15 -4z"/>
<path d="M4465 2420 c3 -5 8 -10 11 -10 2 0 4 5 4 10 0 6 -5 10 -11 10 -5 0
-7 -4 -4 -10z"/>
<path d="M4828 2393 c6 -2 18 -2 25 0 6 3 1 5 -13 5 -14 0 -19 -2 -12 -5z"/>
<path d="M4926 2367 c2 -7 14 -19 27 -26 21 -13 21 -12 -2 13 -27 29 -33 32
-25 13z"/>
<path d="M4868 2333 c7 -3 16 -2 19 1 4 3 -2 6 -13 5 -11 0 -14 -3 -6 -6z"/>
<path d="M4828 2323 c7 -3 16 -2 19 1 4 3 -2 6 -13 5 -11 0 -14 -3 -6 -6z"/>
<path d="M4972 2300 c0 -14 2 -19 5 -12 2 6 2 18 0 25 -3 6 -5 1 -5 -13z"/>
<path d="M4982 2250 c0 -14 2 -19 5 -12 2 6 2 18 0 25 -3 6 -5 1 -5 -13z"/>
<path d="M4930 2200 c-8 -5 -10 -10 -5 -10 6 0 17 5 25 10 8 5 11 10 5 10 -5
0 -17 -5 -25 -10z"/>
<path d="M4888 2183 c7 -3 16 -2 19 1 4 3 -2 6 -13 5 -11 0 -14 -3 -6 -6z"/>
<path d="M4848 2173 c7 -3 16 -2 19 1 4 3 -2 6 -13 5 -11 0 -14 -3 -6 -6z"/>
<path d="M4808 2163 c7 -3 16 -2 19 1 4 3 -2 6 -13 5 -11 0 -14 -3 -6 -6z"/>
<path d="M4640 2152 c0 -6 -8 -13 -17 -15 -10 -3 -2 -5 17 -6 19 0 31 3 25 7
-5 4 -13 11 -17 16 -5 5 -8 5 -8 -2z"/>
<path d="M4758 2153 c6 -2 18 -2 25 0 6 3 1 5 -13 5 -14 0 -19 -2 -12 -5z"/>
<path d="M4703 2143 c9 -2 23 -2 30 0 6 3 -1 5 -18 5 -16 0 -22 -2 -12 -5z"/>
<path d="M4283 2123 c54 -2 139 -2 190 0 51 1 7 3 -98 3 -104 0 -146 -2 -92
-3z"/>
<path d="M3737 2113 c18 -2 50 -2 70 0 21 2 7 4 -32 4 -38 0 -55 -2 -38 -4z"/>
<path d="M3913 2113 c37 -2 97 -2 135 0 37 2 6 3 -68 3 -74 0 -105 -1 -67 -3z"/>
</g>
</svg>
